<svg xmlns="http://www.w3.org/2000/svg" width="200" height="200" viewBox="0 0 20 20">
  <g transform="translate(1 5) scale(0.7)" fill="none" stroke="#10aa50">
    <path
      d="M4.979 9.685C2.993 8.891 2 8.494 2 8s.993-.89 2.979-1.685l2.808-1.123C9.773 4.397 10.767 4 12 4c1.234 0 2.227.397 4.213 1.192l2.808 1.123C21.007 7.109 22 7.506 22 8s-.993.89-2.979 1.685l-2.808 1.123C14.227 11.604 13.233 12 12 12c-1.234 0-2.227-.397-4.213-1.191L4.98 9.684Z" />
    <path
      d="m5.766 10l-.787.315C2.993 11.109 2 11.507 2 12c0 .493.993.89 2.979 1.685l2.808 1.123C9.773 15.604 10.767 16 12 16c1.234 0 2.227-.397 4.213-1.191l2.808-1.124C21.007 12.891 22 12.493 22 12c0-.493-.993-.89-2.979-1.685L18.234 10M5.766 14l-.787.315C2.993 15.109 2 15.507 2 16c0 .494.993.89 2.979 1.685l2.808 1.123C9.773 19.604 10.767 20 12 20c1.234 0 2.227-.397 4.213-1.192l2.808-1.123C21.007 16.891 22 16.494 22 16c0-.493-.993-.89-2.979-1.685L18.234 14"
      opacity=".5" />
  </g>
  <g transform="translate(2.8, 0) scale(0.55)" fill-opacity="1">
    <path fill="#6CE875" d="M13.74 4.23c-.84-1-1.57-2-1.71-2.22H12c-.14.21-.87 1.22-1.71 2.22c-7.2 9.19 1.14 15.39 1.14 15.39l.07.05c.06.95.22 2.33.22 2.33h.62s.15-1.37.21-2.33l.07-.06s8.32-6.19 1.12-15.38zM12 19.48a3.48 3.48 0 0 1-.48-.48L12 9l.45 10a3.57 3.57 0 0 1-.45.48z"/>
  </g>
</svg>